<svg width="1744" height="1719" viewBox="0 0 1744 1719" fill="none" xmlns="http://www.w3.org/2000/svg">
<path d="M1084.91 1072.72C985.844 1369.63 721.203 1461.32 581.271 1092.54C562.028 1041.83 612.342 1022.95 647.529 1000.63C671.631 985.348 684.292 972.093 682.824 958.426C675.896 893.951 645.903 714.572 645.903 714.572L642.852 708.793C642.852 708.793 643.583 707.173 640.712 710.038C637.72 713.025 630.819 744.214 603.622 744.214C579.238 744.214 554.483 733.314 542.636 657.886C538.349 630.589 540.782 559.025 570.989 546.102C583.472 540.763 594.988 538.854 606.222 545.263C617.456 551.671 593.26 523.357 718.209 419.232C799.427 351.549 927.717 341.629 979.484 353.057C1031.25 364.484 1083.02 389.824 1105.91 443.483C1133.69 508.593 1080.03 557.759 1091.82 706.042C1089.67 759.617 1092.74 877.198 945.314 916.607C917.313 924.093 926 965 968 975C1035 996 1084.96 1047.27 1084.96 1072.86" fill="white"/>
<path fill-rule="evenodd" clip-rule="evenodd" d="M1084.94 611.2L1085.1 609.806C1089.24 573.399 1093.26 538.118 1112.24 506.429C1118.7 510.85 1117.95 516.452 1115.93 521.643C1096.01 572.845 1097.84 626.04 1099.67 679.206C1099.83 683.863 1099.99 688.519 1100.14 693.174C1102.22 759.601 1085.65 819.988 1041.35 870.736C1025.98 888.348 1005.63 900.464 984.854 911.045C963.515 921.912 959.03 931.132 965.687 954.599C965.93 955.455 966.229 956.315 966.529 957.178C967.892 961.1 969.273 965.073 965.487 968.95C960.965 973.58 956.026 972.259 950.683 970.829C950.48 970.775 950.277 970.721 950.074 970.667C899.733 957.241 854.697 933.154 813.056 902.393C807.139 898.022 802.272 892.06 797.561 886.29L797.561 886.289L797.256 885.916C794.776 882.879 794.338 878.141 797.807 875.462C801.054 872.955 803.609 875.011 806.452 877.298C806.815 877.59 807.182 877.886 807.556 878.176C830.027 895.614 854.773 907.063 883.768 909.943C897.176 911.275 910.448 910.784 923.708 910.293H923.708H923.709C931.17 910.017 938.626 909.741 946.101 909.79C956.34 909.857 964.752 905.107 972.761 900.584C973.712 900.047 974.658 899.513 975.601 898.99C1003.45 883.545 1029.88 866.229 1047.84 838.331C1063.92 813.331 1073.67 786.1 1079.4 757.443C1086.65 721.27 1085.99 684.7 1085.32 647.621C1085.11 635.536 1084.89 623.397 1084.94 611.2ZM581.684 535.824C603.577 534.064 615.771 547.033 626.037 562.053C638.664 580.526 645.39 601.465 648.37 623.572C648.87 627.28 649.389 631.223 647.152 634.856C642.737 635.45 642.319 631.946 642.252 629.317C641.696 608.644 632.526 590.61 623.308 573.156C616.73 560.704 607.059 548.64 591.943 545.577C574.71 542.084 558.858 557.566 551.067 577.842C536.636 615.398 539.029 652.36 552.455 688.759C558.33 704.687 565.648 720.913 580.303 732.026C595.142 743.28 613.008 741.295 623.903 726.349C624.526 725.494 625.184 724.649 625.845 723.801L625.845 723.801L625.845 723.801C627.841 721.238 629.853 718.656 630.928 715.749C633.035 710.049 636.256 704.629 642.155 705.423C648.978 706.342 650.271 713.729 650.909 719.499C656.707 771.928 664.758 824.024 672.81 876.126L672.81 876.126C674.808 889.053 676.806 901.98 678.769 914.913C681.369 932.023 684.381 956.598 682.361 967.05C682.219 967.792 682.136 968.523 682.058 969.222C681.749 971.958 681.496 974.21 677.906 974.75C673.034 975.484 670.831 972.66 670.233 968.28C667.913 951.274 667.273 944.747 666.275 918.735C665.308 893.519 660.569 868.665 655.83 843.816L655.83 843.815C654.111 834.799 652.392 825.784 650.853 816.753C645.613 785.996 640.483 754.802 640.022 719.777C639.326 720.808 638.644 721.825 637.974 722.826C630.426 734.095 624.264 743.295 613.48 746.877C595.58 752.827 579.917 748.422 567.371 734.277C553.071 718.155 543.783 699.808 538.558 678.498C530.244 644.587 528.704 611.368 539.487 577.853C544.655 561.774 563.189 533.208 581.684 535.824ZM616.346 663.326C620.717 666.467 624.679 669.316 628.334 657.948C627.158 615.652 613.6 588.654 592.472 587.632C603.747 602.197 614.559 616.413 615.472 636.132C610.742 633.978 607.7 630.589 604.784 627.342C602.753 625.08 600.784 622.886 598.348 621.226C597.31 620.518 596.295 619.735 595.271 618.946C590.544 615.301 585.636 611.516 577.471 614.357C581.301 620.187 586.575 624.301 591.799 628.377C597.832 633.083 603.798 637.737 607.392 644.919C596.777 652.561 592.209 662.62 597.718 674.761C602.497 685.296 609.565 694 623.565 694.635C623.043 688.31 618.868 683.707 614.812 679.235C609.879 673.796 605.121 668.55 607.316 660.635C610.515 659.133 613.516 661.291 616.346 663.326Z" fill="black"/>
<path d="M1479.34 1609.34H360.01L184.066 1606.95C184.066 1606.95 209.831 1370.2 220.74 1338.62C246.881 1262.96 273.289 1171.15 341.162 1126.25C370.762 1106.67 394.456 1089.31 396.379 1078.73C397.352 1073.39 494.2 979.027 511.722 969.464C595.242 923.882 676.471 951.091 676.471 951.091L677.371 969.858C677.371 969.858 679.292 992.558 684.259 999.316C707.001 1030.27 785.626 1049.72 838.444 1053.97C904.661 1059.29 976.944 1029.31 979.105 1007.29C980.796 990.05 957.724 958.766 990.926 945.67C1016.48 935.593 1092.45 941.996 1119 952.292C1153.15 965.535 1218.06 1005.78 1249.28 1045.69C1261.5 1061.31 1263.99 1105.22 1305.6 1118.06C1367.6 1137.21 1415.19 1226.76 1440.9 1338.62C1454.04 1395.78 1479.34 1609.34 1479.34 1609.34Z" fill="white"/>
<path d="M1138.96 1609H1023.87L1028.74 1420.31C1028.74 1420.31 1031.18 1155.02 1023.87 1064.46C1021.54 1035.53 1003.64 994.986 991.964 1006.66C923.608 1075.02 828.314 1060.51 819.67 1061.32C796.37 1063.51 758.02 1053.68 713.798 1033.21C701.385 1027.46 673.038 993.436 673.038 993.436C673.038 993.436 631.314 1054.14 628.738 1115.31C624.505 1215.83 633.559 1383.7 636.687 1453.43C639.593 1518.24 641.221 1609 641.221 1609H526.156C526.156 1609 544.619 1289.4 526.156 1109.41C518.282 1032.66 403.534 1100.3 407.324 1074.01C414.339 1025.36 513.691 955.566 564.766 941.811C584.937 936.378 674.476 947.699 674.476 947.699C674.476 947.699 679.676 998.938 702.939 1018.49C712.966 1026.92 760.128 1049.06 807.806 1054.36C863.193 1060.52 921.312 1048.18 954.639 1031.58C998.862 1009.55 937.381 983.566 977.178 956.449C1016.76 929.476 1039.26 939.749 1070.02 940.723C1165.39 943.742 1279.26 1072.15 1261.87 1078.05C1236.72 1086.58 1141.6 1045.17 1131.43 1117.51C1116.99 1220.23 1138.96 1609 1138.96 1609Z" fill="black"/>
<path d="M1473.02 1609C1466.78 1587.73 1461.53 1535.69 1458.12 1507.01C1455.66 1486.35 1438.47 1340.53 1419.56 1289.62C1407.99 1258.46 1397.23 1226.56 1380.13 1197.46C1368.42 1177.53 1350.81 1163.19 1334.06 1148.6C1313.4 1130.6 1290.59 1114.94 1267.12 1100.39C1236.21 1081.22 1203.66 1077.31 1169.49 1088.67C1158.34 1092.39 1150.85 1100.22 1147.62 1113.02C1134.17 1166.34 1138.46 1220.59 1137.81 1274.57C1136.98 1344.37 1140.91 1414.06 1143.04 1483.8C1144.78 1541.04 1142.9 1550.54 1142.39 1609C1137.4 1609 1133.39 1609 1127.91 1609C1127 1576.83 1127.51 1593.66 1127.33 1561.49C1127.05 1513.93 1126.51 1466.37 1125.69 1418.81C1125.1 1380.98 1125.39 1343.06 1122.92 1305.33C1120.32 1265.69 1120.19 1226.18 1123.62 1186.73C1126.07 1158.52 1123.73 1129.73 1134.93 1102.41C1144.33 1079.46 1163.21 1070.59 1184.8 1068.95C1207.18 1067.25 1230.48 1064.07 1254.57 1078.2C1249.8 1061.58 1239.61 1053.48 1231.95 1044.13C1203.93 1009.99 1166.51 988.684 1128.45 967.449C1089.08 945.485 1047.67 948.408 1005.78 950.031C999.278 950.283 993.702 953.755 988.001 956.731C980.485 960.65 972.666 963.961 961.353 961.531C970.878 948.562 983.538 944.175 996.538 940.391C1033.61 929.601 1069.52 935.246 1092.19 938.61C1121.05 942.894 1220.66 990.92 1267.68 1066.5C1290.02 1102.4 1353.48 1102.9 1411.33 1224.05C1426.68 1256.2 1437.45 1290.42 1445.99 1324.83C1456.9 1368.83 1485.49 1577.39 1485.49 1609C1481.18 1609 1477.64 1609 1473.02 1609Z" fill="black"/>
<path d="M193.261 1609C195.284 1602.11 195.953 1599.1 196.902 1593.29C201.546 1564.86 202.368 1535.69 205.777 1507.01C208.231 1486.35 209.091 1465.59 211.884 1444.92C218.992 1392.32 227.393 1340.04 244.334 1289.62C254.986 1257.92 266.67 1226.56 283.765 1197.46C295.471 1177.53 313.09 1163.19 329.831 1148.6C350.493 1130.6 373.309 1114.94 396.771 1100.39C427.688 1081.22 460.234 1077.31 494.409 1088.67C505.56 1092.39 513.047 1100.22 516.275 1113.02C529.72 1166.34 525.438 1220.59 526.084 1274.57C526.919 1344.37 522.984 1414.06 520.858 1483.8C519.114 1541.04 521.428 1608.83 521.428 1608.83C521.428 1608.83 530.483 1608.99 535.969 1608.99C536.877 1576.83 536.385 1593.66 536.569 1561.49C536.845 1513.93 537.389 1466.37 538.202 1418.81C538.794 1380.98 538.502 1343.06 540.976 1305.33C543.576 1265.69 543.706 1226.18 540.276 1186.73C537.821 1158.52 540.161 1129.73 528.965 1102.41C519.565 1079.46 500.683 1070.59 479.095 1068.95C456.714 1067.25 433.413 1064.07 409.32 1078.2C414.096 1061.58 424.284 1053.48 431.948 1044.13C459.963 1009.99 497.389 988.684 535.448 967.449C574.817 945.485 616.223 948.408 658.112 950.031C664.617 950.283 670.193 953.755 675.893 956.731C683.41 960.65 678.236 968.172 682.345 957.356C688.058 942.314 680.357 944.179 667.357 940.395C630.289 929.605 593.215 936.426 556.246 940.948C548.877 941.848 541.498 945.319 534.834 948.919C483.408 976.701 418.729 1026.13 396.212 1066.5C384.191 1088.05 365.46 1099.27 348.712 1114.16C288.953 1167.3 273.27 1178.82 252.555 1224.06C237.725 1256.44 226.436 1290.42 217.902 1324.84C206.993 1368.83 198.761 1413.42 195.067 1458.96C192.433 1491.43 187.742 1523.84 184.784 1556.4C182.712 1579.2 181.258 1596.15 181.258 1609C185.014 1609 188.639 1609 193.261 1609Z" fill="black"/>
<path d="M1309.79 1609C1311.79 1585.29 1301.86 1524.28 1297.33 1493.27C1294.03 1470.69 1294.3 1447.39 1285.87 1425.59C1283.78 1420.19 1284.44 1413.21 1291.19 1412.09C1297.64 1411.02 1300.45 1415.57 1301.93 1422.88C1309.7 1461.22 1313.2 1500.11 1317.85 1538.83C1321.45 1568.8 1325.74 1598.94 1326.38 1608.92C1320.54 1609 1316.14 1609 1309.79 1609Z" fill="black"/>
<path d="M371.285 1609C372.728 1585.44 379.338 1524.28 383.87 1493.27C387.17 1470.69 386.895 1447.39 395.33 1425.59C397.421 1420.19 396.76 1413.21 390.009 1412.09C383.553 1411.02 380.747 1415.57 379.265 1422.88C371.495 1461.22 367.997 1500.11 363.345 1538.83C359.745 1568.8 357.557 1609 357.557 1609C357.557 1609 364.938 1609 371.285 1609Z" fill="black"/>
<path d="M1021.73 1609.34L644.248 1609C644.248 1609 630.734 1174.7 630.734 1085.36C630.734 1011.42 667.273 930.605 682.702 954.709C711.168 999.184 759.213 1009.77 831.706 1013C946.73 1018.11 953.283 975.059 968.958 966.166C1000.44 948.303 1021.73 1022.6 1021.73 1099.27C1021.73 1204.5 1021.73 1609.34 1021.73 1609.34Z" fill="white"/>
<path d="M645.36 1609.34C645.36 1609.34 630.734 1181.76 630.734 1093.86C630.734 1021.11 667.273 930.994 682.702 954.709C711.168 998.466 759.901 1013.06 832.395 1016.24C947.418 1021.27 953.283 974.916 968.958 966.166C1000.44 948.592 1021.73 1032.12 1021.73 1107.55C1021.73 1175.46 1021.73 1609 1021.73 1609" stroke="black" stroke-width="15"/>
<path d="M777.87 1376.69C777.87 1376.69 928.023 1420.37 949.839 1418.84C959.381 1418.17 963.513 1411.89 961.699 1402.61C961.12 1398.14 958.653 1394.33 956.153 1390.69C953.303 1386.54 770.13 1165.03 752.678 1206.07C750.978 1210.06 751.49 1214.74 753.24 1218.63C757.463 1226.53 763.954 1232.96 769.519 1239.9C790.926 1264.69 811.141 1290.47 832.609 1315.2C845.257 1330.09 863.101 1349.36 870.474 1362.9C865.119 1362.4 855.391 1359.4 849.358 1358.03C835.873 1354.56 822.41 1351 808.885 1347.69C789.147 1342.82 769.025 1338.97 748.685 1338.02C739.45 1337.86 728.275 1337.58 721.669 1345.11C716.548 1351.58 715.686 1360.86 718.855 1368.39C722.94 1376.65 729.6 1383.34 735.505 1390.32C745.045 1400.95 755.057 1411.15 765.115 1421.29C783.856 1439.79 802.361 1458.52 821.315 1476.81C843.305 1497.71 864.815 1519.1 886.358 1540.46C902.166 1556 918.307 1571.19 934.166 1586.66C939.012 1591.36 943.835 1596.09 949.027 1600.41C950.754 1601.84 952.477 1603.29 954.313 1604.59C955.507 1605.39 956.685 1606.35 958.178 1606.42C960.663 1605.97 961.52 1602.86 961.752 1600.68C962.666 1594.89 959.044 1590.05 956.212 1585.37C931.577 1546.7 777.87 1376.69 777.87 1376.69Z" fill="black"/>
<path d="M753.289 438.931C757.265 441.216 763.271 442.619 759.989 447.916C757.041 452.675 749.457 448.285 746.658 446.44C741.138 442.801 731.12 437.759 716.224 428.887C711.704 426.195 699.383 433.801 743.31 456.039C747.41 458.114 762.41 474.148 731.61 463.069C700.671 451.941 692.588 447.103 690.303 450.332C684.526 458.5 692.496 463.665 719.093 484.246C723.115 487.358 727.581 489.864 731.805 492.704C735.24 495.014 738.274 498.084 735.413 502.138C732.28 506.578 728.65 503.238 725.413 501.338C692.413 481.974 682.492 478.053 676.158 477.138C671.807 476.512 630.676 469.714 706.619 514.009C712.193 517.26 721.157 519.035 717.446 530.224C700.586 527.473 686.596 518.652 672.296 510.937C663.007 505.925 654.516 499.437 645.618 493.695C642.298 491.551 651.535 497.257 646.818 501.97C643.296 505.492 653.162 515.639 662.359 521.289C673.928 528.397 686.102 534.519 698.024 541.05C701.799 543.118 706.681 545.372 704.672 550.367C702.254 556.378 697.36 552.761 693.886 550.958C679.994 543.752 666.047 536.6 652.577 528.658C644.941 524.152 650.986 563.564 689.884 569.923C691.399 570.191 692.742 571.054 693.616 572.32C694.489 573.585 694.82 575.148 694.534 576.659C693.646 580.959 689.819 581.191 686.308 580.206C680.601 578.606 674.831 577.306 669.7 573.875C661.1 568.136 655.43 571.616 651.779 580.352C647.266 591.152 648.987 602.093 650.968 613.019C651.938 618.372 653.768 623.701 650.146 628.553C646.22 629.533 645.184 626.845 644.446 624.501C634.131 591.494 612.172 566.578 588.613 542.501C571.171 524.674 570.181 501.79 570.198 478.279C570.215 455.984 578.474 435.834 583.605 414.916C590.448 387.023 599.13 359.805 599.939 330.503C600.47 311.252 608.609 293.194 622.513 279.02C656.236 244.639 692.613 213.184 737.813 195.182C770.846 182.027 805.264 172.922 841.486 171.382C885.434 169.515 927.886 175.821 967.722 193.837C993.065 205.297 1016.4 220.913 1032.76 244.829C1043.31 260.249 1061.06 265.814 1076.35 274.499C1117.77 298.031 1154.95 326.282 1180.97 367.02C1198.29 394.153 1202.36 423.203 1187.75 452.602C1176.21 475.833 1153.63 479.702 1130.4 481.041C1080.08 483.941 1033.79 470.98 991.385 444.449C976.543 435.164 962.079 441.238 947.259 441.808C912.896 443.13 878.128 449.126 844.185 442.167C750.926 423.038 743.383 433.231 753.289 438.931Z" fill="black"/>
<path d="M944.627 816.092C952.033 815.221 960.378 817.976 967.185 810.431C949.242 807.965 932.391 804.861 913.013 810.709C923.719 817.981 932.908 818.14 944.627 816.092Z" fill="white"/>
<path fill-rule="evenodd" clip-rule="evenodd" d="M939.309 827.862C942.762 827.656 946.265 827.447 949.82 827.444C952.047 826.893 954.137 826.261 956.145 825.655C959.91 824.517 963.382 823.468 966.914 823.2C975.644 822.544 982.646 819.488 982.798 810.253C982.943 801.397 975.936 797.267 967.907 795.18C948.845 790.226 929.907 792.699 911.207 796.842C905.026 798.211 899.263 802.504 898.912 809.963C898.562 817.389 903.857 821.015 909.843 824.144C919.241 829.06 929.052 828.474 939.309 827.862ZM950.555 815.903C948.544 815.884 946.554 815.866 944.627 816.092C932.908 818.14 923.719 817.981 913.013 810.709C930.872 805.32 946.584 807.533 962.983 809.844C964.378 810.041 965.778 810.238 967.185 810.431C962.149 816.013 956.271 815.957 950.555 815.903Z" fill="black"/>
<path d="M975.184 714.071C980.733 710.163 984.883 704.579 987.024 698.139C989.779 690.272 988.08 681.53 982.579 675.268C977.343 669.236 970.225 671.631 963.531 673.632C959.423 674.859 954.123 678.886 951.363 672.421C948.963 666.788 953.207 662.433 957.425 659.66C965.688 654.23 974.698 653.231 984.212 656.937C996.098 661.568 1000.62 671.413 1002.32 682.737C1008.97 726.966 971.373 737.107 941.585 735.237C939.453 735 937.414 734.234 935.654 733.007C932.284 730.775 926.98 729.16 928.454 723.886C930.132 717.886 935.201 718.895 940.091 719.865C952.114 722.249 963.554 720.061 975.184 714.071Z" fill="black"/>
<path d="M825.129 614.635C830.116 602.597 834.019 585.235 849.214 592.12C869.893 601.493 863.072 622.846 858.89 639.481C857.312 645.758 844.37 655.393 840.636 653.837C824.348 647.046 821.371 632.095 825.129 614.635Z" fill="black"/>
<path d="M1051.96 651.426C1043.38 658.882 1034.99 659.026 1029.82 649.926C1020.71 633.887 1021.2 617.101 1033.14 602.686C1035.64 599.675 1046.89 599.056 1049.42 601.744C1063.36 616.605 1063.96 633.46 1051.96 651.426Z" fill="black"/>
<path fill-rule="evenodd" clip-rule="evenodd" d="M936.086 552.281L936.091 552.281C988.115 552.626 1039.33 552.965 1090.54 553.379C1095.22 553.534 1099.88 553.946 1104.51 554.613C1111.63 555.461 1114.91 558.8 1116.49 566.645C1122.72 597.494 1119.29 627.659 1110.22 657.034C1104.76 674.708 1090.23 685.104 1072.67 690.575C1049.74 697.719 1026.22 702.951 1002.87 694.475C982.13 686.945 965.693 674.48 960.014 650.539C959.303 647.544 958.415 644.608 957.53 641.683L957.53 641.683C955.016 633.372 952.533 625.162 954.257 616.009C954.996 612.085 951.195 610.147 948.208 608.625L948.178 608.609C933.188 600.963 918.478 608.418 915.77 625.087C912.8 643.375 906.77 660.896 896.409 675.877C879.865 699.791 854.759 705.261 827.4 702.024C805.853 699.474 787.236 690.436 771.2 675.436C756.85 662.014 749.583 645.894 751.124 626.641C752.024 615.435 745.703 610.341 737.424 608.931C723.108 606.491 709.839 601.084 696.64 595.707L696.64 595.707C691.89 593.772 687.15 591.84 682.373 590.052C675.182 587.361 667.875 585.068 660.573 582.776L660.573 582.776C652.535 580.254 644.505 577.733 636.643 574.686C636.288 574.549 635.935 574.417 635.588 574.286L635.587 574.286C631.77 572.856 628.566 571.655 629.191 565.821C634.893 563.16 640.131 564.868 645.555 566.636C649.145 567.807 652.817 569.004 656.759 568.979C654.074 559.998 648.481 556.606 639.498 556.208C628.724 555.73 619.098 552.031 611.968 543.033C616.742 538.381 620.995 538.713 625.149 539.84C646.516 545.638 668.347 548.926 690.183 552.215C708.177 554.925 726.175 557.636 743.922 561.752C754.208 564.137 765.261 564.18 774.962 555.33C781.178 549.658 790.446 549.846 798.931 550.018C799.981 550.04 801.018 550.061 802.037 550.07C827.29 550.306 852.539 550.861 878.239 551.425L878.239 551.425C888.89 551.659 899.618 551.895 910.456 552.11C919.023 552.167 927.565 552.224 936.086 552.281ZM760.356 617.971C763.719 659.682 787.103 680.956 823.136 688.965C846.709 694.205 875.409 689.103 889.946 662.185C898.129 647.032 902.768 631.045 906.959 614.601C910.83 599.408 921.194 594.555 942.6 596.34C956.894 597.532 963.476 604.184 965.4 618.805C966.843 629.764 968.476 640.705 970.421 651.589C972.877 665.337 989.854 681.913 1003.73 684.698C1025.07 689.112 1047.22 687.481 1067.68 679.99C1079.66 675.651 1090.59 669.619 1096.36 656.996C1106.44 634.947 1109.45 611.71 1109.14 587.78C1108.85 565.859 1107.52 564.38 1084.84 564.29C1070.75 564.234 1056.66 564.251 1042.56 564.267C1023.03 564.29 1003.49 564.313 983.955 564.142C958.981 563.925 934.008 563.604 909.035 563.283L909.035 563.283C879.978 562.909 850.922 562.536 821.864 562.325C818.382 562.3 814.788 561.963 811.177 561.623C800.435 560.615 789.534 559.591 780.937 566.725C771.995 574.143 763.102 574.12 753.534 574.095H753.533C752.385 574.092 751.227 574.089 750.058 574.099C747.558 574.12 745.094 573.606 742.603 573.087C738.399 572.209 734.118 571.316 729.458 572.953C730.779 587.769 734.15 600.719 751.399 604.178C757.747 605.448 761.123 609.009 760.352 617.971H760.356ZM684.546 564.56C693.391 563.411 701.56 562.35 704.44 575.114H704.436C705.954 579.856 707.095 582.844 708.497 586.515L708.515 586.562C695.509 583.793 685.342 578.841 680.387 565.051C681.778 564.92 683.17 564.739 684.546 564.56Z" fill="black"/>
<path d="M896.904 582.754C896.23 576.754 900.032 575.42 903.92 575.408C922.993 575.35 942.073 575.424 961.137 575.922C965.486 575.943 969.579 577.982 972.213 581.442C965.311 589.5 918.639 590.826 896.904 582.754Z" fill="black"/>
<path d="M821.117 537.064C844.669 536.71 866.451 528.101 889.228 531.194C907.362 533.656 925.476 535.251 943.773 532.062C950.407 530.905 955.354 534.037 956.862 544.187C958.3 530.568 970.205 531.305 973.937 532.887C989.423 539.465 1004.14 533.987 1018.8 532.427C1038.73 530.306 1067.27 542.978 1077.06 560.766C1078.39 562.929 1079.88 564.99 1081.52 566.934C1084.3 570.572 1088.77 574.105 1084.43 579.047C1080.38 583.647 1075.3 580.747 1071.52 578.666C1063.01 573.991 1054.8 568.792 1046.94 563.099C1040.74 558.612 1034.8 557.78 1027.84 560.735C1015.37 566.035 1002.5 566.543 989.032 565.142C974.632 563.642 959.514 568.542 945.97 567.033C924.526 564.633 902.785 570.505 881.846 563.625C873.391 560.847 865.082 556.714 856.677 563.757C855.8 564.492 853.967 565.096 853.096 564.678C840.761 558.767 828.745 564.742 816.681 564.802C806.499 564.853 796.544 567.802 786.433 566.409C782.554 565.874 777.233 568.409 775.406 562.779C773.384 556.553 779.385 554.629 782.856 552.479C791.412 547.179 800.037 541.723 810.725 541.119C813.902 540.941 816.958 538.689 821.117 537.064Z" fill="black"/>
</svg>
